<svg width="178" height="59" viewBox="0 0 178 59" fill="none" xmlns="http://www.w3.org/2000/svg">
<g filter="url(#filter0_d_297095_2083)">
<rect x="4" width="170" height="51" rx="4" fill="#4D5AE5" shape-rendering="crispEdges"/>
<path d="M46.2969 25.0234V25.6094C46.2969 26.4688 46.1823 27.2422 45.9531 27.9297C45.724 28.612 45.3984 29.1927 44.9766 29.6719C44.5547 30.151 44.0521 30.5182 43.4688 30.7734C42.8854 31.0286 42.237 31.1562 41.5234 31.1562C40.8203 31.1562 40.1745 31.0286 39.5859 30.7734C39.0026 30.5182 38.4974 30.151 38.0703 29.6719C37.6432 29.1927 37.3125 28.612 37.0781 27.9297C36.8438 27.2422 36.7266 26.4688 36.7266 25.6094V25.0234C36.7266 24.1589 36.8438 23.3854 37.0781 22.7031C37.3125 22.0208 37.6406 21.4401 38.0625 20.9609C38.4844 20.4766 38.987 20.1068 39.5703 19.8516C40.1589 19.5964 40.8047 19.4688 41.5078 19.4688C42.2214 19.4688 42.8698 19.5964 43.4531 19.8516C44.0365 20.1068 44.5391 20.4766 44.9609 20.9609C45.388 21.4401 45.7161 22.0208 45.9453 22.7031C46.1797 23.3854 46.2969 24.1589 46.2969 25.0234ZM44.125 25.6094V25.0078C44.125 24.388 44.0677 23.8438 43.9531 23.375C43.8385 22.901 43.6693 22.5026 43.4453 22.1797C43.2214 21.8568 42.9453 21.6146 42.6172 21.4531C42.2891 21.2865 41.9193 21.2031 41.5078 21.2031C41.0911 21.2031 40.7214 21.2865 40.3984 21.4531C40.0807 21.6146 39.8099 21.8568 39.5859 22.1797C39.362 22.5026 39.1901 22.901 39.0703 23.375C38.9557 23.8438 38.8984 24.388 38.8984 25.0078V25.6094C38.8984 26.224 38.9557 26.7682 39.0703 27.2422C39.1901 27.7161 39.362 28.1172 39.5859 28.4453C39.8151 28.7682 40.0911 29.013 40.4141 29.1797C40.737 29.3464 41.1068 29.4297 41.5234 29.4297C41.9401 29.4297 42.3099 29.3464 42.6328 29.1797C42.9557 29.013 43.2266 28.7682 43.4453 28.4453C43.6693 28.1172 43.8385 27.7161 43.9531 27.2422C44.0677 26.7682 44.125 26.224 44.125 25.6094ZM50.6634 24.2734V31H48.6009V22.5469H50.5541L50.6634 24.2734ZM53.2338 22.4922L53.2025 24.4141C53.0879 24.3932 52.9577 24.3776 52.8119 24.3672C52.6713 24.3568 52.5384 24.3516 52.4134 24.3516C52.0957 24.3516 51.8171 24.3958 51.5775 24.4844C51.3379 24.5677 51.1374 24.6901 50.9759 24.8516C50.8197 25.013 50.6999 25.2109 50.6166 25.4453C50.5332 25.6745 50.4864 25.9349 50.4759 26.2266L50.0306 26.1719C50.0306 25.6354 50.0853 25.138 50.1947 24.6797C50.3041 24.2214 50.4629 23.8203 50.6713 23.4766C50.8796 23.1328 51.14 22.8672 51.4525 22.6797C51.7702 22.487 52.1348 22.3906 52.5463 22.3906C52.6608 22.3906 52.7832 22.401 52.9134 22.4219C53.0489 22.4375 53.1556 22.4609 53.2338 22.4922ZM59.9206 29.2031V19H61.9988V31H60.1238L59.9206 29.2031ZM54.4909 26.875V26.7109C54.4909 26.0651 54.5639 25.4792 54.7097 24.9531C54.8607 24.4219 55.0795 23.9661 55.3659 23.5859C55.6524 23.2057 55.9988 22.9115 56.405 22.7031C56.8165 22.4948 57.2826 22.3906 57.8034 22.3906C58.3086 22.3906 58.7488 22.4922 59.1238 22.6953C59.504 22.8984 59.8269 23.1875 60.0925 23.5625C60.3633 23.9375 60.5795 24.3828 60.7409 24.8984C60.9024 25.4089 61.0196 25.9714 61.0925 26.5859V27.0312C61.0196 27.6302 60.9024 28.1797 60.7409 28.6797C60.5795 29.1797 60.3633 29.6172 60.0925 29.9922C59.8269 30.362 59.504 30.6484 59.1238 30.8516C58.7435 31.0547 58.2982 31.1562 57.7878 31.1562C57.2722 31.1562 56.8086 31.0495 56.3972 30.8359C55.9909 30.6224 55.6446 30.3229 55.3581 29.9375C55.0769 29.5521 54.8607 29.099 54.7097 28.5781C54.5639 28.0573 54.4909 27.4896 54.4909 26.875ZM56.5613 26.7109V26.875C56.5613 27.2396 56.5925 27.5807 56.655 27.8984C56.7175 28.2161 56.8191 28.4974 56.9597 28.7422C57.1003 28.9818 57.28 29.1693 57.4988 29.3047C57.7227 29.4401 57.9935 29.5078 58.3113 29.5078C58.7175 29.5078 59.0508 29.4193 59.3113 29.2422C59.5769 29.0599 59.7826 28.8125 59.9284 28.5C60.0743 28.1823 60.168 27.8255 60.2097 27.4297V26.2031C60.1889 25.8906 60.1342 25.6016 60.0456 25.3359C59.9623 25.0703 59.8425 24.8411 59.6863 24.6484C59.5352 24.4557 59.3477 24.3047 59.1238 24.1953C58.8998 24.0859 58.6342 24.0312 58.3269 24.0312C58.0092 24.0312 57.7383 24.1016 57.5144 24.2422C57.2904 24.3776 57.1081 24.5677 56.9675 24.8125C56.8269 25.0573 56.7227 25.3411 56.655 25.6641C56.5925 25.987 56.5613 26.3359 56.5613 26.7109ZM68.3028 31.1562C67.6622 31.1562 67.0867 31.0521 66.5763 30.8438C66.0658 30.6354 65.6309 30.3464 65.2716 29.9766C64.9174 29.6016 64.644 29.1667 64.4513 28.6719C64.2638 28.1719 64.17 27.6354 64.17 27.0625V26.75C64.17 26.099 64.2638 25.5078 64.4513 24.9766C64.6388 24.4401 64.9044 23.9792 65.2481 23.5938C65.5919 23.2083 66.0033 22.9115 66.4825 22.7031C66.9617 22.4948 67.4903 22.3906 68.0684 22.3906C68.6674 22.3906 69.196 22.4922 69.6544 22.6953C70.1127 22.8932 70.4955 23.1745 70.8028 23.5391C71.1101 23.9036 71.3419 24.3411 71.4981 24.8516C71.6544 25.3568 71.7325 25.9167 71.7325 26.5312V27.3984H65.1075V25.9766H69.7013V25.8203C69.6908 25.4922 69.6283 25.1927 69.5138 24.9219C69.3992 24.6458 69.2221 24.4271 68.9825 24.2656C68.7429 24.099 68.433 24.0156 68.0528 24.0156C67.7455 24.0156 67.4773 24.0833 67.2481 24.2188C67.0242 24.349 66.8367 24.5365 66.6856 24.7812C66.5398 25.0208 66.4304 25.3073 66.3575 25.6406C66.2846 25.974 66.2481 26.3438 66.2481 26.75V27.0625C66.2481 27.4167 66.295 27.7448 66.3888 28.0469C66.4877 28.349 66.6309 28.612 66.8184 28.8359C67.0111 29.0547 67.2403 29.2266 67.5059 29.3516C67.7768 29.4714 68.0841 29.5312 68.4278 29.5312C68.8601 29.5312 69.2507 29.4479 69.5997 29.2812C69.9539 29.1094 70.2611 28.8568 70.5216 28.5234L71.5606 29.6016C71.3835 29.862 71.144 30.112 70.8419 30.3516C70.545 30.5911 70.1856 30.7865 69.7638 30.9375C69.3419 31.0833 68.8549 31.1562 68.3028 31.1562ZM75.8178 24.2734V31H73.7553V22.5469H75.7084L75.8178 24.2734ZM78.3881 22.4922L78.3569 24.4141C78.2423 24.3932 78.1121 24.3776 77.9663 24.3672C77.8256 24.3568 77.6928 24.3516 77.5678 24.3516C77.2501 24.3516 76.9715 24.3958 76.7319 24.4844C76.4923 24.5677 76.2918 24.6901 76.1303 24.8516C75.9741 25.013 75.8543 25.2109 75.7709 25.4453C75.6876 25.6745 75.6407 25.9349 75.6303 26.2266L75.185 26.1719C75.185 25.6354 75.2397 25.138 75.3491 24.6797C75.4584 24.2214 75.6173 23.8203 75.8256 23.4766C76.034 23.1328 76.2944 22.8672 76.6069 22.6797C76.9246 22.487 77.2892 22.3906 77.7006 22.3906C77.8152 22.3906 77.9376 22.401 78.0678 22.4219C78.2032 22.4375 78.31 22.4609 78.3881 22.4922ZM90.8947 28.0469C90.8947 27.8281 90.8608 27.6328 90.7931 27.4609C90.7306 27.2839 90.6134 27.125 90.4416 26.9844C90.2749 26.8385 90.0379 26.6979 89.7306 26.5625C89.4285 26.4219 89.0379 26.276 88.5588 26.125C88.0275 25.9583 87.5327 25.7708 87.0744 25.5625C86.616 25.3542 86.2124 25.112 85.8634 24.8359C85.5197 24.5599 85.2515 24.2422 85.0588 23.8828C84.866 23.5182 84.7697 23.0964 84.7697 22.6172C84.7697 22.1484 84.8686 21.7214 85.0666 21.3359C85.2697 20.9505 85.5561 20.6198 85.9259 20.3438C86.2957 20.0625 86.7306 19.8464 87.2306 19.6953C87.7358 19.5443 88.2931 19.4688 88.9025 19.4688C89.7463 19.4688 90.4754 19.6224 91.09 19.9297C91.7098 20.237 92.189 20.6536 92.5275 21.1797C92.866 21.7057 93.0353 22.2969 93.0353 22.9531H90.8947C90.8947 22.599 90.8192 22.2865 90.6681 22.0156C90.5223 21.7448 90.2983 21.5312 89.9963 21.375C89.6994 21.2188 89.3244 21.1406 88.8713 21.1406C88.4338 21.1406 88.0692 21.2057 87.7775 21.3359C87.491 21.4661 87.2749 21.6432 87.1291 21.8672C86.9884 22.0911 86.9181 22.3411 86.9181 22.6172C86.9181 22.8255 86.9676 23.013 87.0666 23.1797C87.1655 23.3411 87.314 23.4948 87.5119 23.6406C87.7098 23.7812 87.9546 23.9141 88.2463 24.0391C88.5431 24.1589 88.8869 24.2786 89.2775 24.3984C89.9025 24.5859 90.4494 24.7943 90.9181 25.0234C91.3921 25.2526 91.7853 25.513 92.0978 25.8047C92.4155 26.0964 92.6525 26.4245 92.8088 26.7891C92.9702 27.1536 93.0509 27.5677 93.0509 28.0312C93.0509 28.5208 92.9546 28.9583 92.7619 29.3438C92.5692 29.7292 92.2931 30.0573 91.9338 30.3281C91.5744 30.599 91.1421 30.8047 90.6369 30.9453C90.1369 31.0859 89.577 31.1562 88.9572 31.1562C88.4051 31.1562 87.8582 31.0833 87.3166 30.9375C86.7801 30.7865 86.2931 30.5625 85.8556 30.2656C85.4181 29.9635 85.0692 29.5833 84.8088 29.125C84.5483 28.6615 84.4181 28.1198 84.4181 27.5H86.5744C86.5744 27.8594 86.6317 28.1667 86.7463 28.4219C86.866 28.6719 87.0327 28.8776 87.2463 29.0391C87.465 29.1953 87.7202 29.3099 88.0119 29.3828C88.3035 29.4557 88.6186 29.4922 88.9572 29.4922C89.3947 29.4922 89.7541 29.4323 90.0353 29.3125C90.3218 29.1875 90.5353 29.0156 90.6759 28.7969C90.8218 28.5781 90.8947 28.3281 90.8947 28.0469ZM98.9878 31.1562C98.3472 31.1562 97.7717 31.0521 97.2612 30.8438C96.7508 30.6354 96.3159 30.3464 95.9566 29.9766C95.6024 29.6016 95.329 29.1667 95.1362 28.6719C94.9487 28.1719 94.855 27.6354 94.855 27.0625V26.75C94.855 26.099 94.9487 25.5078 95.1362 24.9766C95.3237 24.4401 95.5894 23.9792 95.9331 23.5938C96.2769 23.2083 96.6883 22.9115 97.1675 22.7031C97.6467 22.4948 98.1753 22.3906 98.7534 22.3906C99.3524 22.3906 99.881 22.4922 100.339 22.6953C100.798 22.8932 101.181 23.1745 101.488 23.5391C101.795 23.9036 102.027 24.3411 102.183 24.8516C102.339 25.3568 102.417 25.9167 102.417 26.5312V27.3984H95.7925V25.9766H100.386V25.8203C100.376 25.4922 100.313 25.1927 100.199 24.9219C100.084 24.6458 99.9071 24.4271 99.6675 24.2656C99.4279 24.099 99.118 24.0156 98.7378 24.0156C98.4305 24.0156 98.1623 24.0833 97.9331 24.2188C97.7092 24.349 97.5217 24.5365 97.3706 24.7812C97.2248 25.0208 97.1154 25.3073 97.0425 25.6406C96.9696 25.974 96.9331 26.3438 96.9331 26.75V27.0625C96.9331 27.4167 96.98 27.7448 97.0737 28.0469C97.1727 28.349 97.3159 28.612 97.5034 28.8359C97.6961 29.0547 97.9253 29.2266 98.1909 29.3516C98.4618 29.4714 98.7691 29.5312 99.1128 29.5312C99.5451 29.5312 99.9357 29.4479 100.285 29.2812C100.639 29.1094 100.946 28.8568 101.207 28.5234L102.246 29.6016C102.069 29.862 101.829 30.112 101.527 30.3516C101.23 30.5911 100.871 30.7865 100.449 30.9375C100.027 31.0833 99.5399 31.1562 98.9878 31.1562ZM106.503 24.2734V31H104.44V22.5469H106.393L106.503 24.2734ZM109.073 22.4922L109.042 24.4141C108.927 24.3932 108.797 24.3776 108.651 24.3672C108.511 24.3568 108.378 24.3516 108.253 24.3516C107.935 24.3516 107.656 24.3958 107.417 24.4844C107.177 24.5677 106.977 24.6901 106.815 24.8516C106.659 25.013 106.539 25.2109 106.456 25.4453C106.373 25.6745 106.326 25.9349 106.315 26.2266L105.87 26.1719C105.87 25.6354 105.925 25.138 106.034 24.6797C106.143 24.2214 106.302 23.8203 106.511 23.4766C106.719 23.1328 106.979 22.8672 107.292 22.6797C107.61 22.487 107.974 22.3906 108.386 22.3906C108.5 22.3906 108.623 22.401 108.753 22.4219C108.888 22.4375 108.995 22.4609 109.073 22.4922ZM113.791 29.4375L115.76 22.5469H117.916L115.018 31H113.705L113.791 29.4375ZM112.354 22.5469L114.346 29.4531L114.416 31H113.096L110.19 22.5469H112.354ZM121.83 22.5469V31H119.759V22.5469H121.83ZM119.619 20.3359C119.619 20.0286 119.723 19.7734 119.931 19.5703C120.145 19.3672 120.431 19.2656 120.791 19.2656C121.15 19.2656 121.434 19.3672 121.642 19.5703C121.856 19.7734 121.963 20.0286 121.963 20.3359C121.963 20.638 121.856 20.8906 121.642 21.0938C121.434 21.2969 121.15 21.3984 120.791 21.3984C120.431 21.3984 120.145 21.2969 119.931 21.0938C119.723 20.8906 119.619 20.638 119.619 20.3359ZM127.907 29.5312C128.199 29.5312 128.459 29.474 128.688 29.3594C128.918 29.2448 129.1 29.0833 129.235 28.875C129.376 28.6667 129.451 28.4245 129.462 28.1484H131.407C131.397 28.7214 131.235 29.2344 130.923 29.6875C130.61 30.1406 130.194 30.5 129.673 30.7656C129.157 31.026 128.579 31.1562 127.938 31.1562C127.287 31.1562 126.72 31.0469 126.235 30.8281C125.751 30.6094 125.347 30.3047 125.024 29.9141C124.707 29.5234 124.467 29.0703 124.306 28.5547C124.149 28.0391 124.071 27.487 124.071 26.8984V26.6484C124.071 26.0599 124.149 25.5078 124.306 24.9922C124.467 24.4766 124.707 24.0234 125.024 23.6328C125.347 23.2422 125.751 22.9375 126.235 22.7188C126.72 22.5 127.285 22.3906 127.931 22.3906C128.613 22.3906 129.212 22.5234 129.728 22.7891C130.248 23.0547 130.655 23.4297 130.946 23.9141C131.243 24.3984 131.397 24.9688 131.407 25.625H129.462C129.451 25.3229 129.384 25.0521 129.259 24.8125C129.134 24.5729 128.957 24.3802 128.728 24.2344C128.498 24.0885 128.22 24.0156 127.892 24.0156C127.543 24.0156 127.251 24.0885 127.017 24.2344C126.787 24.3802 126.608 24.5807 126.478 24.8359C126.353 25.0859 126.264 25.3672 126.212 25.6797C126.165 25.987 126.142 26.3099 126.142 26.6484V26.8984C126.142 27.2422 126.165 27.5703 126.212 27.8828C126.264 28.1953 126.353 28.4766 126.478 28.7266C126.608 28.9714 126.787 29.1667 127.017 29.3125C127.251 29.4583 127.548 29.5312 127.907 29.5312ZM137.219 31.1562C136.578 31.1562 136.003 31.0521 135.493 30.8438C134.982 30.6354 134.547 30.3464 134.188 29.9766C133.834 29.6016 133.56 29.1667 133.368 28.6719C133.18 28.1719 133.086 27.6354 133.086 27.0625V26.75C133.086 26.099 133.18 25.5078 133.368 24.9766C133.555 24.4401 133.821 23.9792 134.164 23.5938C134.508 23.2083 134.92 22.9115 135.399 22.7031C135.878 22.4948 136.407 22.3906 136.985 22.3906C137.584 22.3906 138.112 22.4922 138.571 22.6953C139.029 22.8932 139.412 23.1745 139.719 23.5391C140.026 23.9036 140.258 24.3411 140.414 24.8516C140.571 25.3568 140.649 25.9167 140.649 26.5312V27.3984H134.024V25.9766H138.618V25.8203C138.607 25.4922 138.545 25.1927 138.43 24.9219C138.315 24.6458 138.138 24.4271 137.899 24.2656C137.659 24.099 137.349 24.0156 136.969 24.0156C136.662 24.0156 136.394 24.0833 136.164 24.2188C135.94 24.349 135.753 24.5365 135.602 24.7812C135.456 25.0208 135.347 25.3073 135.274 25.6406C135.201 25.974 135.164 26.3438 135.164 26.75V27.0625C135.164 27.4167 135.211 27.7448 135.305 28.0469C135.404 28.349 135.547 28.612 135.735 28.8359C135.927 29.0547 136.157 29.2266 136.422 29.3516C136.693 29.4714 137 29.5312 137.344 29.5312C137.776 29.5312 138.167 29.4479 138.516 29.2812C138.87 29.1094 139.177 28.8568 139.438 28.5234L140.477 29.6016C140.3 29.862 140.06 30.112 139.758 30.3516C139.461 30.5911 139.102 30.7865 138.68 30.9375C138.258 31.0833 137.771 31.1562 137.219 31.1562Z" fill="white"/>
</g>
<defs>
<filter id="filter0_d_297095_2083" x="0" y="0" width="178" height="59" filterUnits="userSpaceOnUse" color-interpolation-filters="sRGB">
<feFlood flood-opacity="0" result="BackgroundImageFix"/>
<feColorMatrix in="SourceAlpha" type="matrix" values="0 0 0 0 0 0 0 0 0 0 0 0 0 0 0 0 0 0 127 0" result="hardAlpha"/>
<feOffset dy="4"/>
<feGaussianBlur stdDeviation="2"/>
<feComposite in2="hardAlpha" operator="out"/>
<feColorMatrix type="matrix" values="0 0 0 0 0 0 0 0 0 0 0 0 0 0 0 0 0 0 0.15 0"/>
<feBlend mode="normal" in2="BackgroundImageFix" result="effect1_dropShadow_297095_2083"/>
<feBlend mode="normal" in="SourceGraphic" in2="effect1_dropShadow_297095_2083" result="shape"/>
</filter>
</defs>
</svg>
